#!OML:ASF F:\VICON\USERDATA\INSTALL\rory3\rory3.ASF
:FULLY-SPECIFIED
:DEGREES
589
root 0.200148 15.7764 40.4591 -0.346733 1.9271 0.38359
lowerback 11.2513 1.52082 -5.17065
upperback -5.22314 1.32438 1.05834
thorax -12.2284 1.09792 3.79361
lowerneck -11.0381 -6.84335 -4.52439
upperneck 22.5997 -9.51042 3.46667
head 9.31194 -4.47871 0.844766
rclavicle -2.63141e-014 5.31749e-015
rhumerus -42.3638 -17.1563 -72.3387
rradius 14.8427
rwrist 25.043
rhand -11.9192 22.9926
rfingers 7.12502
rthumb 14.1349 -6.5066
lclavicle -2.63141e-014 5.31749e-015
lhumerus -41.0159 6.03687 83.3749
lradius 21.8753
lwrist -1.68337
lhand -4.44872 18.203
lfingers 7.12502
lthumb 21.323 47.0499
rfemur 12.1367 4.47005 25.7817
rtibia 27.6285
rfoot -13.5947 -1.73588
rtoes 8.21847
lfemur -28.1386 -16.8136 -20.2681
ltibia 32.5958
lfoot -5.53975 8.87633
ltoes 34.7027
590
root 0.236371 15.7703 40.5813 -0.395822 2.01337 0.320292
lowerback 11.3678 1.48082 -4.90643
upperback -5.25629 1.30261 1.01793
thorax -12.3233 1.06712 3.60285
lowerneck -11.0975 -6.91745 -4.56275
upperneck 22.6912 -9.60673 3.45197
head 9.36078 -4.52622 0.830519
rclavicle -3.6154e-015 1.66482e-014
rhumerus -43.3533 -18.2576 -71.2153
rradius 14.3824
rwrist 26.2337
rhand -11.9291 22.7003
rfingers 7.12502
rthumb 14.1253 -6.79956
lclavicle -3.6154e-015 1.66482e-014
lhumerus -40.893 6.14786 83.1725
lradius 21.5665
lwrist -1.93438
lhand -4.5563 18.2639
lfingers 7.12502
lthumb 21.2197 47.1225
rfemur 11.239 3.31798 25.2642
rtibia 29.7357
rfoot -12.3651 -1.10985
rtoes 6.57235
lfemur -28.0715 -15.8497 -20.6739
ltibia 33.3189
lfoot -4.81169 7.9241
ltoes 32.133
591
root 0.285715 15.7678 40.7106 -0.379526 2.17131 0.660628
lowerback 11.2493 1.37391 -4.88798
upperback -5.25931 1.15099 0.872593
thorax -12.2331 0.983987 3.46665
lowerneck -11.1693 -6.95439 -4.66111
upperneck 22.7273 -9.6541 3.51541
head 9.39787 -4.54816 0.858506
rclavicle 7.12519e-015 -1.61016e-014
rhumerus -44.2064 -18.9322 -70.3045
rradius 13.8909
rwrist 27.1535
rhand -11.8023 22.5322
rfingers 7.12502
rthumb 14.2475 -6.95908
lclavicle 7.12519e-015 -1.61016e-014
lhumerus -40.8402 6.33411 82.9597
lradius 21.3633
lwrist -2.18655
lhand -4.40531 18.4426
lfingers 7.12502
lthumb 21.3647 47.2848
rfemur 10.2653 2.04577 24.1376
rtibia 31.9296
rfoot -10.8866 -0.369528
rtoes 4.70838
lfemur -27.988 -15.2944 -21.5398
ltibia 34.0629
lfoot -4.41062 7.19684
ltoes 30.0677
592
root 0.330679 15.7662 40.8393 -0.523581 2.29884 0.833598
lowerback 11.3648 1.26862 -4.8128
upperback -5.27066 1.00825 0.813304
thorax -12.2974 0.908892 3.38937
lowerneck -11.2174 -6.92961 -4.64509
upperneck 22.8462 -9.60043 3.40251
head 9.43911 -4.53177 0.821007
rclavicle -5.46658e-016 -1.08338e-014
rhumerus -45.1468 -19.4191 -69.4587
rradius 13.5769
rwrist 27.9796
rhand -11.4204 22.2256
rfingers 7.12502
rthumb 14.6155 -7.23942
lclavicle -5.46658e-016 -1.08338e-014
lhumerus -40.805 6.64823 82.7021
lradius 21.0391
lwrist -2.59646
lhand -4.2097 18.6234
lfingers 7.12502
lthumb 21.5526 47.4442
rfemur 9.32078 0.992 23.2891
rtibia 34.2225
rfoot -9.19711 0.26693
rtoes 3.5385
lfemur -27.6358 -14.9488 -22.1893
ltibia 34.6488
lfoot -4.41942 6.73749
ltoes 28.9598
593
root 0.34976 15.764 40.9598 -0.891419 2.14352 0.493641
lowerback 11.8937 1.27199 -4.6606
upperback -5.30448 1.03091 0.986184
thorax -12.6609 0.925719 3.48596
lowerneck -11.1705 -6.91179 -4.6425
upperneck 22.9684 -9.54431 3.23491
head 9.46161 -4.52326 0.770853
rclavicle 4.65902e-015 -1.78906e-015
rhumerus -46.0463 -19.3936 -68.9826
rradius 13.3622
rwrist 28.2035
rhand -10.953 21.7515
rfingers 7.12502
rthumb 15.0658 -7.68025
lclavicle 4.65902e-015 -1.78906e-015
lhumerus -40.8509 6.81491 82.5645
lradius 20.7623
lwrist -2.88296
lhand -4.40403 18.7521
lfingers 7.12502
lthumb 21.3659 47.5941
rfemur 8.37199 0.614935 23.4216
rtibia 36.5838
rfoot -7.35954 0.320903
rtoes 3.1393
lfemur -27.0788 -14.2792 -22.1231
ltibia 35.0519
lfoot -4.72458 6.24679
ltoes 26.0297
594
root 0.39797 15.7741 41.1002 -0.952307 2.14374 0.851331
lowerback 11.717 1.20791 -4.69939
upperback -5.2594 0.932378 0.858276
thorax -12.4888 0.870381 3.38983
lowerneck -11.1806 -6.95299 -4.79152
upperneck 22.9546 -9.57746 3.26096
head 9.46979 -4.54878 0.798995
rclavicle 2.53947e-014 -2.65378e-014
rhumerus -46.8664 -19.751 -68.2235
rradius 13.0259
rwrist 28.9923
rhand -10.762 21.9815
rfingers 7.12502
rthumb 15.2498 -7.43635
lclavicle 2.53947e-014 -2.65378e-014
lhumerus -40.6939 7.13223 82.347
lradius 20.3751
lwrist -3.40814
lhand -4.61205 18.6743
lfingers 7.12502
lthumb 21.1661 47.5389
rfemur 7.26152 -0.339047 22.2974
rtibia 38.9242
rfoot -5.49737 1.03905
rtoes 2.05845
lfemur -26.5178 -14.2733 -22.9063
ltibia 35.3296
lfoot -5.31886 6.17412
ltoes 23.2927
595
root 0.444152 15.7859 41.2223 -0.931111 2.16256 1.30233
lowerback 11.709 1.14706 -4.89511
upperback -5.26388 0.80171 0.723404
thorax -12.4785 0.817243 3.38124
lowerneck -11.3129 -6.97048 -4.86048
upperneck 23.0184 -9.57931 3.23302
head 9.51951 -4.55552 0.794308
rclavicle -3.52843e-015 -2.18663e-015
rhumerus -47.4529 -19.685 -67.8652
rradius 12.749
rwrist 29.3781
rhand -10.6136 22.2551
rfingers 7.12502
rthumb 15.3927 -7.15182
lclavicle -3.52843e-015 -2.18663e-015
lhumerus -40.5393 7.39831 82.1733
lradius 20.0641
lwrist -3.83228
lhand -4.63616 18.6676
lfingers 7.12502
lthumb 21.143 47.5347
rfemur 5.88708 -1.14033 21.1601
rtibia 41.3459
rfoot -3.39095 1.53968
rtoes 0.912179
lfemur -26.0207 -14.2757 -23.7554
ltibia 35.4487
lfoot -5.53355 6.17811
ltoes 21.4522
596
root 0.467209 15.7852 41.3422 -1.36197 1.73122 1.09162
lowerback 12.0846 1.22127 -4.79872
upperback -5.16035 0.913744 0.839493
thorax -12.5995 0.86918 3.42806
lowerneck -11.4324 -6.92753 -4.73183
upperneck 23.135 -9.48612 2.98549
head 9.55854 -4.52491 0.695271
rclavicle 1.40143e-014 -2.28602e-015
rhumerus -47.9325 -19.1883 -67.9935
rradius 12.6798
rwrist 29.2529
rhand -10.1929 22.1224
rfingers 7.12502
rthumb 15.7979 -7.25295
lclavicle 1.40143e-014 -2.28602e-015
lhumerus -40.4257 7.45803 82.0833
lradius 19.8203
lwrist -4.06453
lhand -4.71045 18.731
lfingers 7.12502
lthumb 21.0716 47.6061
rfemur 4.85351 -1.10752 21.1931
rtibia 43.7319
rfoot -1.0583 1.18594
rtoes 1.82841
lfemur -25.0869 -13.8491 -23.775
ltibia 35.4482
lfoot -5.83994 6.16016
ltoes 20.0532
597
root 0.503656 15.7849 41.4673 -1.5011 1.54281 1.4415
lowerback 12.1569 1.22873 -4.98686
upperback -5.15826 0.872914 0.718354
thorax -12.6399 0.859717 3.4097
lowerneck -11.2531 -6.89738 -4.69806
upperneck 22.931 -9.45016 2.99032
head 9.44988 -4.51079 0.7057
rclavicle -1.78037e-014 1.63997e-014
rhumerus -48.4153 -18.4705 -68.3979
rradius 12.7013
rwrist 28.8786
rhand -9.81144 21.7114
rfingers 7.12502
rthumb 16.1652 -7.63448
lclavicle -1.78037e-014 1.63997e-014
lhumerus -40.3218 7.40851 81.978
lradius 19.4948
lwrist -4.21276
lhand -4.73542 18.5189
lfingers 7.12502
lthumb 21.0476 47.3967
rfemur 3.61162 -1.51143 20.3504
rtibia 46.1557
rfoot 1.06107 1.37813
rtoes 1.9691
lfemur -24.2448 -13.6776 -24.4888
ltibia 35.3083
lfoot -6.05073 6.27242
ltoes 19.8814
598
root 0.541293 15.7841 41.594 -1.60581 1.3464 1.95177
lowerback 12.2179 1.24622 -5.33097
upperback -5.1681 0.815613 0.574915
thorax -12.69 0.854716 3.45876
lowerneck -10.803 -6.80631 -4.84726
upperneck 22.4272 -9.35322 3.26957
head 9.20789 -4.46236 0.859504
rclavicle -1.06598e-014 2.127e-014
rhumerus -48.8273 -17.6262 -68.9024
rradius 12.7362
rwrist 28.3512
rhand -9.43908 21.4675
rfingers 7.12502
rthumb 16.5237 -7.84897
lclavicle -1.06598e-014 2.127e-014
lhumerus -40.2549 7.4739 81.8611
lradius 19.2764
lwrist -4.37368
lhand -4.63352 18.6881
lfingers 7.12502
lthumb 21.1455 47.555
rfemur 2.34922 -1.8737 19.3096
rtibia 48.558
rfoot 3.13373 1.62835
rtoes 2.57293
lfemur -23.3986 -13.462 -25.3834
ltibia 35.1549
lfoot -6.30416 6.22479
ltoes 20.0927
599
root 0.580813 15.7846 41.7107 -1.56482 1.2034 2.545
lowerback 12.2405 1.21497 -5.7126
upperback -5.23265 0.682854 0.402342
thorax -12.7721 0.818008 3.51413
lowerneck -10.2866 -6.6186 -4.92827
upperneck 21.9818 -9.11996 3.46626
head 8.96091 -4.35378 0.990932
rclavicle 2.36057e-015 1.98785e-016
rhumerus -49.2556 -17.2713 -68.9402
rradius 12.6733
rwrist 28.6181
rhand -8.77318 21.4754
rfingers 7.12502
rthumb 17.1648 -7.78641
lclavicle 2.36057e-015 1.98785e-016
lhumerus -40.2462 7.37421 81.8343
lradius 19.2081
lwrist -4.19284
lhand -4.38338 18.9423
lfingers 7.12502
lthumb 21.3858 47.7821
rfemur 0.92749 -2.24023 18.1678
rtibia 50.9954
rfoot 5.30933 1.66274
rtoes 4.50428
lfemur -22.7231 -13.2367 -26.3071
ltibia 34.8699
lfoot -7.18027 5.85303
ltoes 18.2352
600
root 0.611417 15.7872 41.8219 -1.61466 0.967606 2.90502
lowerback 12.3608 1.22062 -5.98346
upperback -5.24174 0.62319 0.310945
thorax -12.8558 0.810032 3.57951
lowerneck -10.232 -6.56816 -5.00027
upperneck 21.9123 -9.05415 3.54816
head 8.93146 -4.32241 1.04039
rclavicle 1.32192e-014 1.05356e-014
rhumerus -49.5663 -17.1812 -68.8757
rradius 12.5713
rwrist 29.1036
rhand -8.1772 21.164
rfingers 7.12502
rthumb 17.7383 -8.04698
lclavicle 1.32192e-014 1.05356e-014
lhumerus -40.1902 7.11165 81.9452
lradius 19.2198
lwrist -3.90891
lhand -4.50705 18.9549
lfingers 7.12502
lthumb 21.267 47.8082
rfemur -0.484671 -2.44643 17.4176
rtibia 53.3976
rfoot 7.69046 1.23305
rtoes 6.30526
lfemur -22.032 -12.7537 -26.9107
ltibia 34.5725
lfoot -7.92632 5.36981
ltoes 16.7779
601
root 0.639569 15.7902 41.932 -1.61883 0.630024 3.1561
lowerback 12.2758 1.24414 -6.14443
upperback -5.15704 0.62663 0.240338
thorax -12.7095 0.814755 3.59209
lowerneck -10.3967 -6.59556 -5.11691
upperneck 21.8498 -9.08455 3.65345
head 8.95315 -4.33314 1.08559
rclavicle -3.10601e-015 1.23246e-014
rhumerus -49.5374 -16.4047 -69.6472
rradius 12.6343
rwrist 28.6688
rhand -7.91563 20.9148
rfingers 7.12502
rthumb 17.99 -8.27319
lclavicle -3.10601e-015 1.23246e-014
lhumerus -39.9665 6.87552 82.0661
lradius 19.3123
lwrist -3.7838
lhand -4.74581 18.7912
lfingers 7.12502
lthumb 21.0376 47.6701
rfemur -2.02842 -2.47099 16.8464
rtibia 55.7738
rfoot 10.4516 0.774061
rtoes 7.56295
lfemur -21.3677 -12.2745 -27.3504
ltibia 34.2034
lfoot -7.75795 5.30415
ltoes 18.2599
